<svg id="ac00b4e5-c79f-4fdd-9214-6b8278446ece" data-name="Layer 1" xmlns="http://www.w3.org/2000/svg" viewBox="0 0 2000 2000"><defs><style>.a221714b-f5a3-4113-8305-e6a19e5a0a5a{fill:#fff;}</style></defs><path class="a221714b-f5a3-4113-8305-e6a19e5a0a5a" d="M388.43561,644.53223c-29.95313-.20972-59.90821-.13013-89.8628-.0691v27.54541c-.04541-9.36474-.12255-27.61938-.03613-27.533h-.0393v-.05835H258.94464v3.92236h21.12769c12.20068.26172,18.07715,11.70654,18.50048,27.2439v.52441c.00025.06616.0066.12817.0066.19482q.09558,180.7738-.0271,361.54737c0,.095-.00122.59741-.00318,1.3855-.51294,15.33276-6.39135,26.58447-18.48657,26.84375H258.93475v3.92236h39.53748v.00708c36.40185.31665,72.83642,1.06128,109.01782-1.6167,120.84863-8.94531,209.25757-122.81689,190.70532-242.72974A213.07589,213.07589,0,0,0,388.43561,644.53223ZM534.75861,978.95c-32.16822,57.09985-82.77857,86.19385-148.813,87.08716-17.50659.23706-35.0188.03589-52.96753.03589V650.18335c.7041-.4917,1.15478-1.0813,1.61133-1.08618,35.63867-.3584,71.57812-3.8479,106.24243,7.90014C489.9649,673.64868,524.23077,707.24,544.461,754.05786,577.359,830.19312,575.71979,906.2417,534.75861,978.95Z"/><path class="a221714b-f5a3-4113-8305-e6a19e5a0a5a" d="M923.45416,900.49072v1.88965c-1.07446,13.95142-6.946,23.93091-18.3269,24.1814l-21.12769.01147.002,3.92237,39.45263-.02173v.00049q78.8335.0454,157.665-.21875c2.09033-.00977,5.59326-3.39112,6.021-5.65674,3.78-20.041,7.04-40.18091,10.37866-60.3042.51416-3.09766.64746-6.25855.957-9.39014q-1.214-.3219-2.42749-.644c-1.02588,2.2998-1.95019,4.65112-3.09375,6.89062-8.467,16.58741-16.26221,33.57544-25.71631,49.582-6.72949,11.3938-17.73218,16.49976-31.69409,16.01343-20.68286-.721-41.40918-.19507-62.11743-.199-5.01709-.00147-10.03467-.00049-15.3064-.00049V763.37231h38.58423c.14673,0,.28027.00123.42554.00123,15.60083.38647,27.11963,6.24145,27.38891,18.47436l.01123,21.12793,3.74781-.00244V719.70093l-3.74781-.00171-.01123,21.12768c-.27392,12.4585-12.21362,18.30518-28.25293,18.49366-12.61425.13232-25.29785-.02051-38.17724-.02051V649.69751c3.84033,0,7.17358-.00024,10.50635,0,22.12646.00171,44.281.68433,66.36889-.23364,14.75366-.6128,25.948,4.84985,32.977,16.80224,9.13941,15.5398,16.61011,32.06177,24.762,48.17993,1.25439,2.47925,2.3125,5.05787,3.46142,7.59083,1.897-2.408,2.14551-4.23291,1.85938-5.96973-3.41431-20.68506-7.33545-41.29956-10.146-62.0647-.96167-7.10571-3.57275-8.55713-10.14673-8.53223-51.4248.19654-102.85107.1504-154.2771.1482v.001l-39.45044-.02172-.00219,3.92236,21.12793.01147c12.675.27881,18.52075,12.62207,18.51171,29.0835l-.0166-6.50293c.03,4.87085.052,8.64087.05225,9.27246.01489,118.292.01733,95.91773-.01978,214.20972C923.65631,897.32446,923.57526,898.93506,923.45416,900.49072Z"/><path class="a221714b-f5a3-4113-8305-e6a19e5a0a5a" d="M1330.59332,1050.99438l-2.66015-9.14209c-.509-1.37182-.99292-2.78222-1.42188-4.27832-4.71973-16.4602-12.86426-44.65307-22.69922-78.624l-8.11792-27.90063.033-.01294c-34.8667-120.33277-83.08545-286.21558-83.08545-286.21558s-36.98926.654-37.64306,0l19.6477,65.76148c-29.61108,102.17138-67.95776,234.66284-98.23657,339.99023-2.8335,7.62671-8.97461,15.69482-16.87793,15.86475h-21.12744v3.92212h36.84033v.01391h2.74683v.00488H1137.544v-3.92212h-24.88379c-7.03028-.15063-16.12354-2.80053-12.1687-16.90844.3894-1.33789,29.01147-99.58594,34.761-119.43042h125.15235l35.96069,121.04834c2.78979,12.64135-5.81616,15.11377-12.55786,15.258h-24.88379v3.92237h39.55249v-.00489h2.74683l30.355-.01416h36.84033v-3.92211h-21.12793C1339.54376,1066.23828,1333.49835,1058.48413,1330.59332,1050.99438Zm-193.61816-126.8208q13.94312-48.1344,27.792-96.29541c.22144-.77148.45166-1.47485.69287-2.14135l5.28052-17.91773c8.60156-29.64331,25.73657-89.6875,26.18384-89.67456l61.52734,205.99512h.18091l.01025.03393Z"/><path class="a221714b-f5a3-4113-8305-e6a19e5a0a5a" d="M1719.93756,1066.603c-12.12842-.26-17.9956-11.58081-18.48047-26.978.001-113.45215.00391-249.29614.01123-358.282l-.04736-17.99292c.5061-12.4148,12.74487-18.16211,29.043-18.16211l-29.09082.09082v-.00049h-34.22656s-96.20459,236.95337-108.7544,267.75073c-5.2373-10.28467-137.72168-270.66748-137.72168-270.66748s-38.85742.51709-39.62451,0l37.59668,71.78369c.00976,98.29493.00415,223.75367-.01636,326.79908-.772,14.72241-6.65137,25.40625-18.43237,25.65869H1379.066v3.92236h83.103V1066.603h-21.12769c-12.46753-.26734-18.3208-12.22-18.51-28.27637-.01367-96.29028-.01074-213.905-.01465-304.9873V721.6106c.697-.04346,82.02442,156.61645,122.72852,234.29,40.708-99.6914,121.542-298.41992,122.08838-298.30371,0,2.71778.00024,9.11573.00024,11.833.00049,112.304.00342,251.55908-.00073,368.2583l-.00928-.1582c0,16.46143-5.85254,28.80127-18.52783,29.073h-21.12769v3.92236h.18848v.01221h108.2544v-.01221h4.9541V1066.603Zm-297.39233-18.92945-.01245-.06787c-.00025-1.34228-.00025-2.69409-.00074-4.04492Z"/><path class="a221714b-f5a3-4113-8305-e6a19e5a0a5a" d="M1011.24738,988.52734c-7.80445-3.48559-21.0149-4.80444-29.42749-4.76684a106.4416,106.4416,0,0,0-24.90723,3.47412c-16.25049,4.18872-31.61231,11.08008-46.28125,18.99609a399.79677,399.79677,0,0,0-42.18848,26.81885c-3.04053,2.19092-8.4165,6.57251-15.06811,12.15381C769.972,990.322,762.53619,943.60352,756.37555,934.05688c53.36572-10.78222,113.59473-69.61767,114.583-129.4663,1.25366-75.917-52.58057-158.55713-151.6416-158.55713-32.44873,0-41.271-.05567-61.34278-.06739v.00049H618.49591v3.92237H639.6236c11.41455.24462,17.2937,10.27832,18.35058,24.29345v6.00952c.00806.48487.03076.94214.03076,1.44263q.04834,177.81921-.00146,355.6377c-.00049.7063-.032,1.36963-.054,2.04638v2.41846c-.93872,14.31348-6.821,24.61816-18.39062,24.86621H618.43121v3.92236h39.51831v.00879h33.95191v-.00879h39.50146v-3.92236H710.275c-11.49072-.24658-17.37426-10.41113-18.37353-24.57348V993.7854h.01513c-.00048-12.314.00025-20.385,0-52.99023,0-3.30079-.00024-6.60132-.00024-10.68238,11.91089,0,22.88794.25464,33.79126-.07348a28.5074,28.5074,0,0,1,5.10742,1.03637l3.90235,1.35376q.6405.25673,1.27148.52613c12.062,21.45,26.52246,63.41333,109.92481,118.55249-22.94141,19.49511-54.56641,47.18066-63.8462,54.06445a201.50357,201.50357,0,0,1-19.82568,13.00684c-7.14551,4.08032-14.80615,7.62085-22.96338,8.50781a31.00807,31.00807,0,0,1-12.0896-1.08545,38.0618,38.0618,0,0,1-10.95239-5.41065c-6.74365-4.72387-12.40332-10.88867-17.58691-17.32788l-1.75464,1.56665c4.81494,6.82422,10.12036,13.45679,16.91723,18.88672a40.93033,40.93033,0,0,0,11.564,6.44092,34.8316,34.8316,0,0,0,13.4956,1.8794,47.93069,47.93069,0,0,0,13.18311-2.75464,91.13248,91.13248,0,0,0,11.99878-5.25952c7.665-3.98877,15.564-11.13917,22.55591-15.845,19.8374-13.813,42.17627-35.844,63.30566-54.04907,5.01025,3.25171,10.24536,6.54541,15.74854,9.88526a195.1735,195.1735,0,0,0,22.81054,10.34326,202.155,202.155,0,0,0,23.89038,7.53271,211.56514,211.56514,0,0,0,24.61231,4.66895c2.06616.31421,4.14184.542,6.2229.7268,2.07959.19263,4.15576.43653,6.23852.58667,4.17041.22852,8.33741.56836,12.51587.58326,8.30786.32812,16.708-1.03662,25.02613-2.59986,19.7207-3.70605,53.02465-23.16382,53.02465-56.63037C1040.00494,1000.81519,1019.02008,992.01978,1011.24738,988.52734ZM692.2879,925.64478V650.73608c2.51587-.25024,4.71-.6521,6.90454-.657,99.37354,0,143.1792,80.66821,142.85474,154.49341C841.77325,866.94556,800.54694,925.64478,692.2879,925.64478Zm329.218,103.48584c-.24438,6.62329-1.73437,42.36084-48.06885,47.69482-1.76733.21582-3.56494.28149-5.36767.3291-1.79322.07251-3.92627-.0293-5.873-.03369a214.73623,214.73623,0,0,1-47.28955-5.43384,215.761,215.761,0,0,1-44.84912-16.01465c-4.40259-2.6333-8.60913-5.251-12.66016-7.85327,5.68286-4.68115,11.24439-8.9751,16.60474-12.62427,6.76538-4.58911,13.58838-9.0769,20.53589-13.28881,6.89209-4.31446,13.93774-8.31031,21.064-12.065,14.25781-7.42871,29.05884-13.74145,44.05274-17.34521a100.77129,100.77129,0,0,1,22.20971-2.91284c7.21216.009,16.72559,2.49975,22.552,5.15014a29.79545,29.79545,0,0,1,13.26417,12.59278C1020.70929,1012.64136,1021.7276,1022.50415,1021.50592,1029.13062Z"/><path class="a221714b-f5a3-4113-8305-e6a19e5a0a5a" d="M1008.9151,1261.81519a12.13036,12.13036,0,0,0,10.34961-2.25757,17.84769,17.84769,0,0,0,5.36084-21.83667,12.13882,12.13882,0,0,0-8.12671-6.7959,11.76716,11.76716,0,0,0-10.2251,2.29053,18.31053,18.31053,0,0,0-5.36108,21.83642A11.75872,11.75872,0,0,0,1008.9151,1261.81519Z"/><path class="a221714b-f5a3-4113-8305-e6a19e5a0a5a" d="M1282.8299,1319.84009q-20.105,25.36523-43.65308,25.84887,10.04919-6.82287,10.05127-15.48413,0-8.65429-8.47217-17.43628-8.473-8.77917-17.23144-18.41137-8.7638-9.62952-9.04639-18.65332,0-4.14441-3.1604-4.14624-4.0232,0-16.65723,9.75512a3.39647,3.39647,0,0,0-.86157,2.68164q0,9.75733,6.4624,18.89893a66.98983,66.98983,0,0,0,14.2168,14.99658q20.95971,15.36146,20.96411,22.92139-.28711,4.88159-10.62573,4.87768-6.61011,0-14.50366-8.77807-7.90248-8.77917-9.62085-16.583c-.19361-.81079-1.00489-1.219-2.44043-1.219a4.64127,4.64127,0,0,0-2.26758.98l-.17041-.24878c-.24219.31567-.50489.6123-.75342.92187a55.74614,55.74614,0,0,0-5.56787,5.17481c-1.34839,1.39453-2.46509,2.59179-3.40088,3.6355a60.25865,60.25865,0,0,1-11.24194,6.85107,59.55726,59.55726,0,0,1-25.56226,6.09448q-31.0155,0-49.68481-30.23681a297.249,297.249,0,0,0,52.41455-70.96045c33.80346-63.6211,21.13061-78.80957,1.02807-78.80957-17.08105,0-90.812,33.353-67.08984,157.47656-13.30176,13.53564-28.48535,25.94531-37.93945,25.94531q-12.06227,0-19.52832-10.97412c-4.98121-7.31543-8.14258-17.24756-7.46729-29.74951,1.948-36.05347-16.53393-27.84985-19.52832-16.09351-2.22436,8.73316-4.022,15.36231-4.022,19.7522a84.26885,84.26885,0,0,0,.89209,12.56763q-17.65869,19.84606-34.77832,19.86352a22.62525,22.62525,0,0,1-17.94947-8.1687q-7.03931-8.16687-7.0354-20.84936,0-12.67677,10.05127-24.38428,1.72266-2.19654,1.72388-2.92725,0-3.65661-14.791-3.65674-14.79492,0-15.65234,1.46265-2.01159,0-4.30786,13.41211a118.763,118.763,0,0,0-.86133,15.606,43.93027,43.93027,0,0,0,3.73364,17.802,8.66654,8.66654,0,0,1-5.02563,5.97266,19.40523,19.40523,0,0,1-8.7605,2.07421c-10.72461,0-22.25439-2.394-21.66284-14.24926.72339-14.50122,22.19678-23.83423,21.49292-32.38306-.73828-8.97168-19.69556,3.18848-28.98023,13.34619q-10.69665,11.70264-13.1665,22.61133-14.93372,14.32726-29.48144,14.33154-13.21253,0-21.82666-9.26587a48.22363,48.22363,0,0,1-6.60572-10.12085,77.38883,77.38883,0,0,1-4.73852-11.094q-1.58277-4.87573-3.73365-11.94946-2.15368-7.06934-3.303-10.24073,3.15636-3.65953,3.15942-5.85278,0-2.194-2.2981-2.19409-7.18138,0-15.50781,6.09473-11.39576,5.17785-26.697,49.988a4.39153,4.39153,0,0,1-7.75439,1.10181c-22.0337-32.04834-2.28248-56.71118-14.08472-56.69678-19.68213.02368-11.67578,35.8457-6.31885,56.32935a165.50874,165.50874,0,0,1,4.021,16.0935q0,1.70362,8.61572,1.70655,8.61694,0,12.92358-4.14429,2.00647-.97815,4.30884-8.29248,6.913-21.71778,15.11987-36.37207a2.70667,2.70667,0,0,1,5.01636.98169,76.66838,76.66838,0,0,0,9.73194,26.36841,36.92232,36.92232,0,0,0,15.22168,14.02148q10.04881,5.24121,23.54907,5.24316,21.41418,0,39.94165-19.03784.33618,17.31958,24.9646,17.33155,9.18786,0,19.52954-5.12159,10.33961-5.12218,14.93335-10.97412,10.912,17.79932,31.30469,17.802,25.46741,0,46.85083-26.92138a44.64651,44.64651,0,0,0,8.71972,18.75268q10.47949,12.80164,25.56006,12.80274,15.0769,0,30.01026-8.9021a94.74048,94.74048,0,0,0,23.98364-21.09717c3.06543,13.90454,26.66235,29.99927,41.38916,29.99927h.86133q18.37536,0,37.76709-9.38965a82.596,82.596,0,0,0,17.075-10.90845q10.75451,19.06055,39.06738,19.07715,15.22045,0,32.166-8.65625a82.45454,82.45454,0,0,0,29.00561-24.99365Zm-129.967-121.35767c3.7793,41.17041-42.4458,94.2107-55.84448,109.1648C1087.117,1186.89087,1151.06476,1178.89771,1152.86285,1198.48242Z"/></svg>